<svg xmlns="http://www.w3.org/2000/svg" width="35.626" height="30" viewBox="0 0 35.626 30"><defs><style>.a{fill:#004274;}.b{fill:#006e9e;}</style></defs><path class="a" d="M34.609,8.727A14.805,14.805,0,0,0,12.791,6.818c-5.291,5.127-6.491,14.236.3,21.273l-1.527-.055H3.136A2.849,2.849,0,0,1,0,24.845V10.173A5.025,5.025,0,0,1,4.309,4.964c.518-.109.982-.109.955-.845-.027-.518.409-.464.764-.464H9.518c.627,0,1.309-.191,1.336.9.027.518,1.609.518,2.073-.082a23.415,23.415,0,0,0,1.827-2.7A3.338,3.338,0,0,1,17.891,0c3.3.027,6.845.027,10.227,0a2.959,2.959,0,0,1,3.027,1.718C32.073,3.955,34.8,8.918,34.609,8.727Z" transform="translate(0 0)"/><path class="b" d="M62.679,29.527v.218A12.7,12.7,0,0,1,37.288,29.5,12.692,12.692,0,0,1,61.37,23.991H53.379a4.656,4.656,0,0,0-3.273-1.118,6.7,6.7,0,1,0,.027,13.391,5.9,5.9,0,0,0,5.4-2.782H50.052V28.027H62.734c.027,0-.027.245,0,.491C62.761,28.927,62.679,29.118,62.679,29.527Z" transform="translate(-27.116 -12.291)"/></svg>